<svg xmlns="http://www.w3.org/2000/svg" height="800" width="1200" version="1.0" viewBox="-111.75 -276.66075 968.5 1659.9645"><path d="M352.43.49c10.13-.42 20.28-.56 30.43-.46 4.38 7.36 11.8 12.03 17.3 18.45 5.75 6.6 11.29 13.37 16.8 20.16 4.6 5.81 8.28 12.28 12.9 18.09 12.9 19.09 23.76 39.62 31.73 61.26 11 29.02 16.92 59.8 19.06 90.72 1.48 11.95.83 24.01 1.14 36.01-.14 52.14-7.6 103.88-9.84 155.91-1.86 39.92-.37 80.46 9.86 119.27 10.02 39.13 29.57 75.56 55.45 106.47 8.81 10.09 17.62 20.26 27.67 29.16-6.94 3.86-13.5 8.4-20.56 12.03-3.96-4.48-8.35-8.53-12.55-12.77-11.24-11.51-21.31-24.06-31.59-36.42-19.54-25.81-36.12-53.98-48.04-84.13-15.52-38.64-23.29-80.07-25.7-121.55-3.41-56.09 2.6-112.11 5.69-168.07 1.9-37.8 2.57-76.06-4.44-113.42-5.89-31.35-17.67-61.89-36.42-87.85-8.08-11.71-17.47-22.49-27.73-32.34-3.67-3.57-7.98-6.46-11.16-10.52zM198.08 41.53c7.04-2.96 13.64-6.96 20.77-9.68 4.33 2.4 7.53 6.42 11.03 9.87 6.7 7.64 13.7 15.04 19.9 23.1 13.29 15.66 24.24 33.2 33.64 51.43 9.61 17.66 16.23 36.75 21.74 56.03 11.42 42.4 12.96 86.78 10.37 130.41-3.29 57.79-13.12 115.06-14.67 172.97-1.16 46.09 3.69 93.29 21.94 136.04 11.52 28.95 29.47 54.9 49.87 78.29 5.97 6.75 12.68 12.82 18.64 19.59-11.79.21-23.58.7-35.38.57-4.92-6.78-11.32-12.35-16.68-18.77-10.24-10.21-19-21.74-27.85-33.13-7.31-10.8-15.03-21.36-21.15-32.91-20.41-35.42-33.62-74.99-38.49-115.59-1.92-14.37-2.95-28.86-3.27-43.35-1.24-63.23 11.19-125.53 18.91-188.02 5.14-43.1 8.17-87.43-2-130.05-8.35-36.3-27.9-69.68-54.72-95.42-4.11-3.89-7.93-8.14-12.6-11.38zm-45.73 703.4c4.52-2.47 9.97-1.1 14.36.99 13.09 7.48 22.98 19.39 31 31.95 5.07 8.94 8.42 18.71 11.22 28.57-6.24.38-12.52.41-18.76-.01-1.35-6.83-3.31-13.77-7.62-19.37-7.39-9.71-17.17-17.57-28.22-22.73-3.57-1.56-6.77-4.69-7.2-8.72-.93-4.24 1.76-8.45 5.22-10.68zm258.62-.3c4.58-2.85 10.39-1.24 14.77 1.21 12.23 7.05 21.81 17.97 29.36 29.74 5.91 9.42 9.3 20.1 12.65 30.63-6.34-.12-12.68.07-19.02-.12-1.56-10.27-6.43-20.06-14.2-27.02-4.96-5.2-10.84-9.43-17.06-12.96-3.62-1.88-7.83-3.28-10.14-6.87-3.61-4.64-1.65-12.18 3.64-14.61zM219 813.6c3.33.12 6.61-.52 9.93-.65 29.35-.12 58.7.11 88.05-.12 19.66.29 39.33.37 58.99.07 91 .11 182 .05 273.01.1 5.51-.22 9.85 5.28 8.83 10.59-.37 3.92-3.81 7.56-7.83 7.67-7.2.39-14.45-.34-21.64.34.13 32.68.09 65.37.02 98.05 3.59.38 7.48-.15 10.73 1.78 4.17 2.14 5.17 7.75 3.52 11.82-1.53 3.75-5.91 5.05-9.62 5.15-11.03-.05-22.05.04-33.08-.04-3.02-.06-6.49-.64-8.4-3.25-3.28-3.77-3.04-10.77 1.46-13.51 3.41-2.01 7.47-1.65 11.26-1.74.06-18.17.22-36.35-.08-54.52-8.11 1.6-15.58 6.54-19.86 13.67-4.56 7.22-7.66 15.89-14.97 20.9-3.73 1.2-8.27.32-11.03-2.57-3.35-3.2-3.89-8.27-3.31-12.63.93-5.96 5.12-10.53 8.46-15.29-7.3-5.87-17.12-8.59-26.39-7.15-4.93 1.08-8.79 4.67-11.96 8.41-4.1 5.66-4.82 13.18-3.01 19.81 3 11.53 13.07 19.61 23.29 24.74 3.8 2.3 8.14 3.59 11.78 6.15 5.08 4.78 4.65 15.32-2.46 17.99-3.35 1.15-7.24 1.19-10.61.06-9.07-4.55-18.32-9.12-25.87-16.03-9.97-8.26-18.25-19.44-20.41-32.45-1.11-8.92-.37-18.25 3.22-26.56 6.3-14.17 21.53-23.63 36.97-23.5 13.86-.66 27.88 4.63 38 14.1 3.86-2.99 7.52-6.33 12.01-8.37 4.93-2.76 10.72-2.89 16.22-3.2.09-7.35.14-14.7.04-22.04-32.41.41-64.84.23-97.26.26-12.13.17-24.24-.67-36.37-.28-.2 9.74.11 19.49-.14 29.23-.09 3.1-1.31 6.64-4.35 8.01-3.72 2-8.08 1.5-12.14 1.58-11.68.05-23.36-.14-35.02.1-5.04.13-8.75 4.06-11.47 7.88-4.49 8.01-3.79 17.83-1.46 26.4 3.07 10.93 13.3 18.89 24.36 20.45 7.25.91 15.04 1.08 21.73-2.31 7.74-3.43 14.42-9.21 18.75-16.49 4.59-1.4 10.26-1.93 14.21 1.34 4.39 4.04 5.34 11.7 1.16 16.24-9.09 11.02-22.73 17.85-36.72 20.12-13.93 1.54-28.58-.05-41.03-6.84-13-6.84-23.32-19.25-26.35-33.77-1.78-7.69-2.18-15.78-.6-23.53 2.47-12.35 12.46-22.66 24.43-26.2 12.37-2.61 25.11-.48 37.59-1.54 3.01.16 4.27-2.9 4.31-5.44.19-5.08.03-10.15.05-15.22-28.4-.26-56.81.1-85.22.05-.11 32.81.02 65.63-.05 98.44 4.51.02 10.45-.45 13.2 3.94 2.82 3.39 2 8.73-.82 11.88-2.18 1.91-5.11 2.76-7.98 2.7-11.02-.01-22.04.06-33.06-.02-4.08.1-8.42-1.93-9.94-5.89-.83-3.5-.79-8 2.6-10.16 3.16-3.16 7.92-2.12 11.93-2.7-.19-17.98-.12-35.98-.04-53.97-7.59.69-14.3 5.83-18.73 11.82-5.08 7.51-8.07 16.86-15.79 22.26-7.17 2.98-15-3.73-14.64-11.11-1.01-7.75 4.87-13.38 8.46-19.49-7.49-5.59-17.16-8.54-26.46-6.93-6.98 2.13-12.95 7.84-14.9 14.95-1.81 6.97-.3 14.55 3.27 20.71 5.74 9.09 15.06 15.27 24.75 19.53 3.18 1.49 6.84 2.8 8.75 5.97 3.22 4.67 2.11 11.67-2.23 15.26-4.34 1.98-9.72 2.1-13.98-.18-8.51-4.09-16.83-8.73-24.08-14.83-8.28-7.25-15.71-15.98-19.11-26.62-3.63-12.33-2.29-26.2 4.16-37.37 9.27-14.52 27.8-21.62 44.54-18.34 9.46 1.52 18.72 5.49 25.88 11.93.81.6 1.97 2.07 3.03.96 3.16-2.2 5.85-5.03 9.31-6.78 5.25-3.13 11.45-3.93 17.46-4.02.46-7.29.21-14.61.15-21.91-39.87-.14-79.75-.17-119.62.22 4.28 9.86 7.63 20.71 5.69 31.56-1.74 9.76-8.67 18.31-17.87 22.02-7.43 3.57-15.75 3.84-23.8 4.55-.44 12.02-.42 25.56 7.76 35.28 6.04 6.42 15.42 5.6 23.44 5.51 4.76.26 10.03-.95 14.32 1.7 4.25 2.61 4.16 8.84 2.08 12.82-2.35 3.9-7.47 3.58-11.41 3.56-12.98-.32-27.06 1.57-38.8-5.25-9.83-5.29-16.52-15.3-18.62-26.17-2.24-9.02-1.91-18.35-2.66-27.54-4.04-.22-8.21.42-12.15-.73-8.38-3.21-7.17-18.56 2.31-19.23 11.65-.51 23.35.24 35-.41 4.08-.41 8.51-1.06 11.64-3.97 3.53-3.28 6.34-7.75 6.27-12.72.43-8-3.86-15.33-9.24-20.91-18.59-.28-37.18.05-55.77-.16-6.3.2-9.53-7.85-7.1-12.96 1.06-3.4 4.63-5.26 8.06-5 27.02.06 54.05-.08 81.07-.02zm30.98 167.95c7.88-4.96 19.34-3.55 25.41 3.64 4.65 5.12 6.36 11.98 8.6 18.34 9.43 27.3 18.89 54.59 28.4 81.87 1.41 4.46 2.52 9.53.31 13.93-3.89 8.49-17.23 9.93-22.79 2.38-4.31-5.77-5.54-13.11-7.47-19.89-15.27-.31-30.56-.29-45.83 0-2.56 7.25-3.89 15.38-9.13 21.31-5.29 5.69-15.56 4.04-19.41-2.53-3.71-5.92-1.76-13.27.65-19.28 10.15-27.89 20.22-55.8 30.32-83.7 2.09-6.17 5.3-12.45 10.94-16.07m9.76 28.05c-4.84 15.34-10.2 30.51-14.84 45.91 9.73.11 19.48.19 29.21.03-4.93-15.27-9-30.84-14.37-45.94zm74.65-30.34c4.78-1.41 10.4-.59 14.09 2.91 3.94 4.86 4.45 11.44 4.55 17.46-.01 27.33-.03 54.66 0 81.99-.05 6.19.23 12.78-2.57 18.48-3.63 7.67-15.11 8.46-20.99 3.05-4.19-5.16-4.37-12.2-4.51-18.53.04-29.01-.06-58.03.05-87.04.13-6.92 1.75-15.99 9.38-18.32zm47.23 1.99c5.82-4.37 15.83-3.43 19.43 3.36 2.31 3.91 2.7 8.54 2.93 12.98.08 26.98-.15 53.96.11 80.93 8.65.27 17.31-.07 25.96.13 4.86.25 10 1.05 14.05 3.96 5.57 4.69 5.18 14.94-1.16 18.83-4.8 2.78-10.53 3.16-15.95 3.21-11-.1-22-.01-33-.02-4.63-.29-9.75-.47-13.54-3.48-3.91-3.26-4.13-8.81-4.45-13.49-.03-29.69-.02-59.37 0-89.05.16-6.08.84-13.03 5.62-17.36zm237.96.95c5.55-5.44 16.65-4.86 20.48 2.35 2.7 4.51 2.79 9.97 2.97 15.09-.02 26.29-.06 52.59.02 78.9 7.98.19 15.96.06 23.95.04 5.09.1 10.42.63 14.96 3.12 7.22 4.45 6.61 16.98-1.19 20.48-9.43 3.92-19.86 1.98-29.77 2.42-9.45-.42-19.25 1.27-28.41-1.64-6.03-1.85-7.3-8.82-7.56-14.27-.09-30.03 0-60.06-.06-90.08.19-5.68.76-11.91 4.61-16.41zm-500.77 3.24c3.95-3.19 9.27-3.65 14.15-3.82 16.95.4 35.22-2.25 50.71 6.33 9.54 5.14 16.6 14.86 17.9 25.7 1.64 10.71-1.08 22.71-9.42 30.12-5.09 5.19-12.2 7.42-19.05 9.2 7.84 9.02 15.75 17.98 23.55 27.04 3.75 4.61 7.5 10.4 6.01 16.63-1.47 7.59-10.69 12.18-17.7 8.96-7.41-3.52-11.88-10.81-16.86-17-8.83-10.66-16.84-21.98-25.94-32.4-.35 10.48.06 20.98-.21 31.46-.19 5.34-.86 11.16-4.5 15.37-4.51 4.4-12.05 4.67-17.27 1.38-2.91-1.99-4.3-5.46-5.25-8.7-1.39-6.95-.85-14.06-.9-21.09-.03-24.67.02-49.34-.04-74.01.26-5.29.66-11.33 4.82-15.17m23.21 22.21c-.06 9.64.05 19.29.02 28.94 8.1-.41 16.92 1.65 24.37-2.49 9.14-4.61 8.88-20.1-.44-24.37-7.46-3.55-16-1.64-23.95-2.08zm296.04-22.85c4.49-2.65 9.84-3.16 14.94-3.21 16.34.02 32.67 0 49 .01 5.81.24 12.36.92 16.56 5.44 2.57 3.39 3.04 8.13 1.74 12.14-1.32 3.71-4.9 6.22-8.62 7.17-6.73 1.85-13.77 1.15-20.65 1.3.01 25.99.01 51.98 0 77.98-.13 5.81-.49 12.12-4.06 16.99-4.07 4.09-10.66 5-15.92 2.86-3.48-1.46-5.69-4.88-6.73-8.37-1.81-6.34-1.27-12.99-1.3-19.49-.02-23.33.04-46.65-.05-69.98-8.05-.25-16.62.92-24.14-2.67-7.48-3.65-7.83-15.89-.77-20.17zm98.38-1.52c6.91-2.48 14.37-1.49 21.56-1.68 8.37.14 16.75-.24 25.11.19 4.94.54 10.73 1.45 13.8 5.85 3.31 4.78 2.71 12.2-1.83 16.01-4.01 2.98-9.18 3.67-14.03 3.92-8.35.17-16.69-.01-25.03.07-.06 6.3-.04 12.6.05 18.9 7.33.17 14.66-.1 21.98.13 5.47.29 11.55 1.16 15.49 5.36 3.32 4.3 3.29 10.84.01 15.17-3.57 4.06-9.34 4.94-14.46 5.31-7.67.34-15.35-.01-23.02.19-.11 8.6-.08 17.21.01 25.82 8.31.26 16.63.02 24.94.09 4.94.19 10.17.76 14.41 3.54 6.1 4.24 6.08 14.6.07 18.91-4.87 3.14-10.88 3.55-16.51 3.6-11.35-.12-22.7 0-34.05-.08-5.29-.28-11.73-.99-14.72-6.02-1.83-3.67-2.13-7.91-2.24-11.94.01-27 .01-54 0-81-.01-5.1-.15-10.36 1.64-15.22 1.06-3.2 3.54-6.09 6.82-7.12z" fill="#1f1a18"/><path d="M382.86.03c4.6.11 9.22.05 13.79.75 49.99 4.9 99.18 19.1 143.72 42.42 9.05 4.45 18.09 8.98 26.64 14.36 13.96 8.86 27.92 17.82 40.78 28.26 7.1 5.51 14.22 11.05 20.68 17.33 6.23 5.41 12.29 11.03 17.91 17.09 3.66 4 7.99 7.38 11.27 11.74 7.77 9.25 15.82 18.29 22.97 28.05 25.26 34.09 44.47 72.82 55 113.98 4.15 16.61 6.91 33.54 8.64 50.56.46 6.51.18 13.05.74 19.55v7.98c-.73 8.25-.02 16.59-1.35 24.8-4.27 43.7-17.71 86.29-38.08 125.13-7.87 16.23-17.7 31.4-27.72 46.36-6.58 11.43-15.42 21.26-23.39 31.7-9.89 11.7-19.11 24.11-30.48 34.45 4.07-9.66 9.45-18.69 13.72-28.26 13.64-28.79 25.95-58.4 33.57-89.41 8.5-33.6 11.6-69.42 2.69-103.27-7.52-28.5-23.63-54.72-45.9-74.04-3.21-3.12-6.18-6.53-9.83-9.16-7.32-5.34-14.06-11.48-21.95-16-21.87-14-45.44-25.22-69.75-34.26-14.61-6-29.84-10.25-44.74-15.42-.31-12 .34-24.06-1.14-36.01-2.14-30.92-8.06-61.7-19.06-90.72-7.97-21.64-18.83-42.17-31.73-61.26-4.62-5.81-8.3-12.28-12.9-18.09-5.51-6.79-11.05-13.56-16.8-20.16-5.5-6.42-12.92-11.09-17.3-18.45zM116.39 100.08c.31.19.63.38.94.57-.99 1.1-2.05 2.15-2.78 3.45-11 21.8-21.93 43.72-30.34 66.68-8.99 22.57-15.76 46.03-20.08 69.94-1.99 12.19-3.29 24.53-2.91 36.9-.85 28.5 6.49 57.2 21.13 81.68 6.23 11.29 14.88 20.97 23.57 30.41 8.17 7.51 15.95 15.58 25.31 21.66 13.38 10.18 27.96 18.63 43.03 26.02 23.72 12.06 48.75 21.43 74.23 29.01.32 14.49 1.35 28.98 3.27 43.35 4.87 40.6 18.08 80.17 38.49 115.59 6.12 11.55 13.84 22.11 21.15 32.91 8.85 11.39 17.61 22.92 27.85 33.13 5.36 6.42 11.76 11.99 16.68 18.77-16.59.26-33.28.16-49.66-2.77-40.15-5.95-78.92-19.96-114.3-39.71a236.767 236.767 0 01-30.86-19.14c-3.99-2.69-8.45-4.69-12.02-7.97-6.19-5.54-13.17-10.1-19.33-15.67-8.96-8.04-18.67-15.32-26.64-24.4-3.62-4.04-7.83-7.51-11.22-11.75-3.73-4.6-7.76-8.93-11.58-13.44-6.74-8.92-14.21-17.3-20.31-26.69-13.66-20.45-25.83-41.97-35.31-64.69C10.37 449.05 1.51 411.79 0 374.07v-37.76c2.05-7.21 1.93-14.78 3.4-22.1 6.94-45.51 23.54-89.37 47.49-128.62 11.47-19.63 24.6-38.3 39.19-55.72 8.11-10.47 16.72-20.63 26.31-29.79z" fill="#0093dd"/></svg>